<?xml version="1.0" encoding="UTF-8" standalone="no"?>
<!DOCTYPE svg PUBLIC "-//W3C//DTD SVG 1.1//EN" "http://www.w3.org/Graphics/SVG/1.1/DTD/svg11.dtd">
<svg width="100%" height="100%" viewBox="0 0 64 64" version="1.1" xmlns="http://www.w3.org/2000/svg" xmlns:xlink="http://www.w3.org/1999/xlink" xml:space="preserve" xmlns:serif="http://www.serif.com/" style="fill-rule:evenodd;clip-rule:evenodd;stroke-linejoin:round;stroke-miterlimit:2;">
    <g transform="matrix(1.48786,0,0,1.48116,-234.889,-9.69751)">
        <g id="logo">
            <g>
                <g id="Rectangle" transform="matrix(1,0,0,1,148.5,-2)">
                    <path d="M51,12.701C51,11.21 49.795,10 48.312,10L13.688,10C12.205,10 11,11.21 11,12.701L11,47.299C11,48.79 12.205,50 13.688,50L48.312,50C49.795,50 51,48.79 51,47.299L51,12.701Z" style="fill:rgb(249,138,24);"/>
                </g>
                <g id="inkwell" transform="matrix(1,0,0,1,148.5,-2)">
                    <path d="M33,34.422L33,34C33,32.896 32.105,32 31,32L25,32C23.895,32 23,32.896 23,34L23,34.422C21.236,35.194 20,36.951 20,39L20,42L36,42L36,39C36,36.951 34.764,35.194 33,34.422ZM37,18C31.477,18 27,22.477 27,28L27,30L29,30L29,28C29,27.893 29.029,25.368 31.553,24.105C32.049,23.858 32.648,24.059 32.895,24.552C33.142,25.046 32.942,25.647 32.448,25.894C31.017,26.61 31,27.986 31,28L34,28C39.523,28 44,23.523 44,18L37,18Z" style="fill:white;fill-rule:nonzero;"/>
                </g>
            </g>
        </g>
    </g>
</svg>
